HIERARCHY
ROOT Hips
{
 OFFSET 0.000000 0.000000 0.000000
 CHANNELS 6 Xposition Yposition Zposition Yrotation Xrotation Zrotation
 JOINT Chest
 {
  OFFSET 0.000000 10.080317 -0.001081
  CHANNELS 3 Yrotation Xrotation Zrotation
  JOINT Chest2
  {
   OFFSET 0.000000 11.096852 0.001963
   CHANNELS 3 Yrotation Xrotation Zrotation
   JOINT Chest3
   {
    OFFSET 0.000000 10.026525 0.000000
    CHANNELS 3 Yrotation Xrotation Zrotation
    JOINT Chest4
    {
     OFFSET 0.000000 10.026525 0.000000
     CHANNELS 3 Yrotation Xrotation Zrotation
     JOINT Neck
     {
      OFFSET 0.000000 14.108171 0.000000
      CHANNELS 3 Yrotation Xrotation Zrotation
      JOINT Head
      {
       OFFSET 0.000000 9.333493 0.004668
       CHANNELS 3 Yrotation Xrotation Zrotation
       End Site
       {
        OFFSET 0.000000 17.851786 0.002438
       }
      }
     }
     JOINT RightCollar
     {
      OFFSET -3.071622 7.873185 0.000000
      CHANNELS 3 Yrotation Xrotation Zrotation
      JOINT RightShoulder
      {
       OFFSET -14.378659 0.000000 0.000000
       CHANNELS 3 Yrotation Xrotation Zrotation
       JOINT RightElbow
       {
        OFFSET -30.778728 0.000000 0.000000
        CHANNELS 3 Yrotation Xrotation Zrotation
        JOINT RightWrist
        {
         OFFSET -25.164217 0.000000 0.000000
         CHANNELS 3 Yrotation Xrotation Zrotation
         End Site
         {
          OFFSET -18.796788 0.000000 0.000000
         }
        }
       }
      }
     }
     JOINT LeftCollar
     {
      OFFSET 3.071622 7.873185 0.000000
      CHANNELS 3 Yrotation Xrotation Zrotation
      JOINT LeftShoulder
      {
       OFFSET 14.378659 0.000000 0.000000
       CHANNELS 3 Yrotation Xrotation Zrotation
       JOINT LeftElbow
       {
        OFFSET 30.778728 0.000000 0.000000
        CHANNELS 3 Yrotation Xrotation Zrotation
        JOINT LeftWrist
        {
         OFFSET 25.164217 0.000000 0.000000
         CHANNELS 3 Yrotation Xrotation Zrotation
         End Site
         {
          OFFSET 18.796788 0.000000 0.000000
         }
        }
       }
      }
     }
    }
   }
  }
 }
 JOINT RightHip
 {
  OFFSET -8.194923 0.005295 0.000540
  CHANNELS 3 Yrotation Xrotation Zrotation
  JOINT RightKnee
  {
   OFFSET 0.000000 -42.473320 -0.000511
   CHANNELS 3 Yrotation Xrotation Zrotation
   JOINT RightAnkle
   {
    OFFSET 0.000000 -41.474259 -0.000865
    CHANNELS 3 Yrotation Xrotation Zrotation
    JOINT RightToe
    {
     OFFSET 0.000000 -7.354994 16.712725
     CHANNELS 3 Yrotation Xrotation Zrotation
     End Site
     {
      OFFSET 0.000000 -1.553903 6.764158
     }
    }
   }
  }
 }
 JOINT LeftHip
 {
  OFFSET 8.194923 0.005295 0.000540
  CHANNELS 3 Yrotation Xrotation Zrotation
  JOINT LeftKnee
  {
   OFFSET 0.000000 -42.473320 -0.000511
   CHANNELS 3 Yrotation Xrotation Zrotation
   JOINT LeftAnkle
   {
    OFFSET 0.000000 -41.474259 -0.000865
    CHANNELS 3 Yrotation Xrotation Zrotation
    JOINT LeftToe
    {
     OFFSET 0.000000 -7.354994 16.712725
     CHANNELS 3 Yrotation Xrotation Zrotation
     End Site
     {
      OFFSET 0.000000 -1.553903 6.764158
     }
    }
   }
  }
 }
}
MOTION
Frames: 12
Frame Time: 0.016667
0.000000 91.111157 0.000000 0.000000 -5.826342 0.000000 0.000000 11.116423 0.000000 0.000000 -5.290081 0.000000 0.000000 0.000000 0.000000 0.000000 0.000000 0.000000 0.000000 12.665069 0.000000 0.000000 0.575450 0.000000 0.000000 0.000000 0.000000 0.000000 0.000000 0.000000 2.337306 0.000000 0.000000 -2.337306 0.000000 0.000000 0.000000 0.000000 0.000000 0.000000 0.000000 0.000000 -2.337306 0.000000 0.000000 2.337306 0.000000 0.000000 0.000000 8.578828 0.000000 0.000000 1.905768 0.000000 0.000000 -4.658254 0.000000 0.000000 0.000000 0.000000 0.000000 8.578828 0.000000 0.000000 1.905768 0.000000 0.000000 -4.658254 0.000000 0.000000 0.000000 0.000000
436.429120 92.959822 -353.319259 -18.171866 2.349897 0.790030 5.507742 5.562004 0.622402 2.411005 2.448286 0.303815 2.411005 2.448286 0.303815 1.806762 1.837447 0.218167 -15.401531 17.772561 2.892641 -29.245063 -1.057074 10.183415 -1.639257 -1.831998 11.447890 0.225890 -4.582097 61.933642 22.726693 9.855382 11.056171 -0.866082 1.446476 -11.488670 -7.299823 0.615512 -8.578360 -0.181282 -12.720814 -65.884662 -23.725595 20.382409 -21.813770 5.189067 8.745868 15.658863 -17.645061 -3.893282 -2.364443 -6.143299 14.092576 -2.443104 3.655804 -9.957898 0.304289 0.314571 -0.419393 0.309353 -6.406499 -3.133527 2.437045 0.709444 15.153776 -5.081868 4.125860 -8.530519 -1.403819 -0.469653 -3.202454 1.159457
436.429565 92.988154 -353.309621 -18.126334 2.414464 0.792011 5.482553 5.552936 0.603397 2.403727 2.446622 0.297766 2.403727 2.446622 0.297766 1.801329 1.836171 0.213666 -15.323227 17.743962 2.894028 -29.107521 -1.125854 10.170984 -1.597192 -1.834380 11.441967 0.224178 -4.591512 61.957164 22.765537 9.916072 11.099639 -0.842717 1.422753 -11.488592 -7.270649 0.606243 -8.558853 -0.239396 -12.706949 -65.855464 -23.552143 20.432722 -21.720538 5.203894 8.767987 15.601746 -17.655835 -3.952475 -2.334809 -6.171066 14.082458 -2.457493 3.653390 -9.850845 0.241189 0.302449 -0.455910 0.327098 -6.375334 -3.144562 2.418984 0.603071 15.015479 -5.071590 4.213675 -8.394065 -1.398359 -0.472314 -3.812109 1.396754
436.434620 93.013831 -353.294300 -18.080224 2.470741 0.798004 5.478023 5.551464 0.584527 2.402710 2.444890 0.293601 2.402710 2.444890 0.293601 1.800584 1.834856 0.210554 -15.253833 17.704176 2.891387 -28.986958 -1.214067 10.156348 -1.591843 -1.833674 11.403970 0.227122 -4.596280 61.993736 22.840094 9.932894 11.150400 -0.846561 1.427818 -11.493871 -7.269403 0.587760 -8.553367 -0.257766 -12.687826 -65.803636 -23.439401 20.509650 -21.673462 5.243369 8.773390 15.551636 -17.657576 -3.997298 -2.322909 -6.181591 14.063153 -2.456822 3.636175 -9.744699 0.181798 0.292856 -0.481550 0.338416 -6.350811 -3.131984 2.386037 0.506346 14.853723 -5.051904 4.297926 -8.261780 -1.372530 -0.483425 -4.299565 1.567855
436.434076 93.037235 -353.281712 -18.016495 2.529309 0.795426 5.465000 5.542622 0.574099 2.400743 2.445110 0.288893 2.400743 2.445110 0.288893 1.799128 1.835001 0.207030 -15.177097 17.664128 2.880661 -28.850493 -1.306463 10.125027 -1.594538 -1.857193 11.367487 0.236194 -4.581269 62.028278 22.918158 9.981829 11.194719 -0.842185 1.399646 -11.482914 -7.264345 0.566487 -8.536945 -0.255052 -12.660603 -65.788372 -23.343149 20.579393 -21.612087 5.265258 8.806828 15.514615 -17.639976 -4.028969 -2.308258 -6.230988 14.028544 -2.444093 3.630846 -9.641691 0.120633 0.282094 -0.495740 0.341310 -6.361911 -3.118757 2.366708 0.405400 14.683806 -5.025099 4.391108 -8.130718 -1.359204 -0.467738 -4.692354 1.697760
436.427347 93.056454 -353.268383 -17.963491 2.571036 0.789571 5.461988 5.543219 0.567239 2.398910 2.445495 0.283539 2.398910 2.445495 0.283539 1.797774 1.835268 0.203021 -15.092278 17.633624 2.871874 -28.698126 -1.382675 10.092551 -1.578794 -1.874534 11.340440 0.233077 -4.576717 62.036759 23.000798 9.974387 11.261911 -0.846905 1.407233 -11.478838 -7.249677 0.545767 -8.522270 -0.251075 -12.649354 -65.767475 -23.241835 20.642187 -21.560924 5.290502 8.807906 15.497333 -17.644218 -4.039074 -2.285658 -6.241698 13.989208 -2.434622 3.617680 -9.554386 0.060867 0.276371 -0.495461 0.339924 -6.375776 -3.081403 2.359911 0.328073 14.517243 -5.012560 4.435753 -8.019855 -1.310473 -0.458408 -5.002964 1.775505
436.409447 93.070530 -353.256191 -17.895615 2.595150 0.779757 5.467473 5.548501 0.566346 2.399829 2.447143 0.276286 2.399829 2.447143 0.276286 1.798492 1.836476 0.197572 -14.998445 17.609137 2.869041 -28.530023 -1.448247 10.066746 -1.599944 -1.899526 11.319943 0.237102 -4.560974 62.041824 23.084811 10.003839 11.315789 -0.844528 1.388249 -11.464034 -7.257553 0.524576 -8.513881 -0.247217 -12.638894 -65.745568 -23.140824 20.670688 -21.477728 5.291001 8.825230 15.471753 -17.655220 -4.037142 -2.248405 -6.291221 13.972919 -2.456978 3.628199 -9.494844 0.010865 0.268491 -0.489752 0.336049 -6.432575 -3.035531 2.362212 0.290162 14.376326 -5.001905 4.527050 -7.933336 -1.276763 -0.436266 -5.248026 1.826823
436.392930 93.079814 -353.251520 -17.822750 2.624444 0.781310 5.459050 5.547969 0.547960 2.401367 2.451093 0.269103 2.401367 2.451093 0.269103 1.799671 1.839411 0.192163 -14.897587 17.589497 2.862970 -28.347181 -1.507271 10.031850 -1.605292 -1.934193 11.300260 0.233484 -4.550061 62.052414 23.152371 10.018095 11.347528 -0.841189 1.373195 -11.450432 -7.251144 0.474583 -8.487647 -0.236931 -12.610517 -65.741599 -23.069190 20.693412 -21.393974 5.315021 8.819715 15.443725 -17.700746 -4.054579 -2.225753 -6.300238 13.975950 -2.457755 3.619759 -9.461781 -0.045002 0.263975 -0.469141 0.328452 -6.517028 -2.991148 2.361130 0.248660 14.218385 -5.002545 4.611531 -7.855949 -1.216424 -0.431221 -5.427094 1.840807
436.379056 93.084527 -353.251185 -17.764701 2.648948 0.781911 5.481142 5.566543 0.533485 2.412123 2.460529 0.264307 2.412123 2.460529 0.264307 1.807750 1.846474 0.188486 -14.817185 17.559790 2.867285 -28.206688 -1.577448 10.023766 -1.669558 -1.999149 11.283912 0.255285 -4.536379 62.052113 23.211219 10.001318 11.369118 -0.848397 1.390045 -11.446622 -7.311876 0.410506 -8.446079 -0.212669 -12.630454 -65.746123 -23.003439 20.699056 -21.342585 5.325288 8.829947 15.416006 -17.706734 -4.081103 -2.203000 -6.326005 14.000584 -2.471643 3.610461 -9.448872 -0.076405 0.248211 -0.442327 0.308286 -6.584084 -2.948255 2.357419 0.202742 14.073683 -4.995113 4.620941 -7.803503 -1.136678 -0.411710 -5.551152 1.829643
436.362828 93.087772 -353.257439 -17.699364 2.672332 0.780514 5.480233 5.571197 0.518747 2.414871 2.465563 0.258357 2.414871 2.465563 0.258357 1.809831 1.850228 0.183994 -14.703257 17.544022 2.866446 -28.000812 -1.630681 9.993471 -1.636340 -2.023146 11.252131 0.213605 -4.556157 62.054763 23.253404 10.004147 11.402383 -0.837897 1.393106 -11.454843 -7.301260 0.379044 -8.432679 -0.206977 -12.651049 -65.719457 -22.983952 20.693780 -21.325061 5.336813 8.832280 15.401647 -17.734506 -4.109811 -2.169873 -6.344299 14.031907 -2.488332 3.597005 -9.451072 -0.119029 0.242094 -0.412483 0.296494 -6.649755 -2.908787 2.347717 0.156669 13.928370 -4.980557 4.692085 -7.753731 -1.051736 -0.391132 -5.639391 1.787495
436.353535 93.089085 -353.270166 -17.618932 2.693919 0.786311 5.475494 5.576996 0.500101 2.414249 2.470150 0.251721 2.414249 2.470150 0.251721 1.809389 1.853642 0.179001 -14.594847 17.524589 2.863861 -27.805074 -1.689747 9.962309 -1.595407 -2.031927 11.237575 0.195576 -4.570959 62.041277 23.285217 9.984876 11.398471 -0.831634 1.385919 -11.465493 -7.282888 0.348748 -8.421398 -0.185506 -12.690217 -65.706817 -22.979608 20.701441 -21.324264 5.339305 8.842740 15.399370 -17.731503 -4.146915 -2.137914 -6.399507 14.072586 -2.527155 3.568775 -9.466601 -0.140618 0.239063 -0.378448 0.282036 -6.721632 -2.890303 2.323269 0.113244 13.816043 -4.953126 4.749821 -7.714497 -0.958504 -0.386437 -5.703877 1.726102
436.333948 93.089940 -353.285134 -17.536238 2.695970 0.780283 5.486543 5.601209 0.497867 2.417158 2.479118 0.245551 2.417158 2.479118 0.245551 1.811590 1.860344 0.174327 -14.508019 17.499839 2.860757 -27.649532 -1.753970 9.937497 -1.571489 -2.048489 11.221487 0.170567 -4.617698 62.039101 23.300493 9.996871 11.377876 -0.838103 1.391892 -11.454793 -7.291381 0.315212 -8.408630 -0.182819 -12.737311 -65.691741 -22.980570 20.682560 -21.321461 5.339555 8.851901 15.406413 -17.726409 -4.156330 -2.110142 -6.457959 14.111664 -2.536682 3.546733 -9.483606 -0.173715 0.234688 -0.352788 0.263116 -6.793413 -2.852657 2.316621 0.064808 13.712122 -4.921570 4.802354 -7.687461 -0.889497 -0.364379 -5.743837 1.667165
